<svg width="78" height="78" viewBox="0 0 78 78" fill="none" xmlns="http://www.w3.org/2000/svg">
    <circle cx="39" cy="39" r="39" fill="#F9CED8"/>
    <path d="M24.1736 34.1889L24.7575 40.705H39.3394V34.1889H24.1736ZM23.5924 27.5162H39.3394V21H23L23.5924 27.5162ZM39.3394 51.112L39.3108 51.1196L32.0537 49.1601L31.5899 43.9631H25.0486L25.9616 54.1944L39.3094 57.9L39.3394 57.8916V51.112Z" fill="#E30C3B"/>
    <path d="M39.3169 34.1889V40.705H47.3408L46.5845 49.156L39.3169 51.1175V57.8968L52.6754 54.1944L52.7734 53.0935L54.3045 35.9386L54.4636 34.1889L55.6399 21H39.3169V27.5162H48.4988L47.9058 34.1889H39.3169Z" fill="#E30C3B"/>
</svg>
