<svg width="78" height="78" viewBox="0 0 78 78" fill="none" xmlns="http://www.w3.org/2000/svg">
    <circle cx="39" cy="39" r="39" fill="#D2EDFA"/>
    <path d="M39.3393 34.1888H30.7168L30.1213 27.5162H39.3393V21H23L23.156 22.7482L24.7575 40.7048H39.3393V34.1888ZM39.3393 51.1118L39.3109 51.1194L32.0537 49.1598L31.5898 43.9629H25.0487L25.9616 54.1941L39.3093 57.8996L39.3393 57.8913V51.1118Z" fill="#00A6EB"/>
    <path d="M39.3394 34.1888V40.7048H47.3631L46.6067 49.1557L39.3394 51.1172V57.8964L52.6976 54.1942L52.7956 53.0933L54.3268 35.9385L54.4858 34.1888H52.7299H39.3394ZM39.3394 21V27.5162H55.0787L55.2094 26.0515L55.5063 22.7482L55.6621 21H39.3394Z" fill="#00A6EB"/>
</svg>
